<?xml version="1.0" encoding="UTF-8" standalone="no"?>
<svg width="456" height="456" viewBox="0 0 456 456" version="1.1" xmlns="http://www.w3.org/2000/svg"
     xmlns:xlink="http://www.w3.org/1999/xlink" xml:space="preserve" xmlns:serif="http://www.serif.com/"
     style="fill-rule:evenodd;clip-rule:evenodd;stroke-linejoin:round;stroke-miterlimit:2;">


<path
   d="m 102.79125,169.04999 h 31 l 5.25,5.75 -6.28125,5.5 h -30.96875 l -4.999998,-5.5 z m -7.281248,84.75 h 30.968748 l 5,5.5 -6.03125,5.75 H 94.478752 l -5.25,-5.75 z m 38.531248,-72.46875 6,-5.5 5.25,5.5 -2.8125,30.21875 -6,5.5 -5.25,-5.5 z m -44.562498,0 6.28125,-5.5 4.999998,5.5 -2.437498,30.21875 -6.28125,5.5 -5.25,-5.5 z m 40.843748,41.46875 6.15625,-5.75 4.96875,5.75 -2.40625,29.96875 -6.28125,5.5 -5.25,-5.5 z m -44.531248,0 6.25,-5.75 5.25,5.75 -2.8125,29.96875 -6.28125,5.5 -4.96875,-5.5 z"
   id="path9111"
   style="fill:#ffffff" />
<path
   d="m 186.26,211.54999 h 11.28125 l -0.78125,11 h -11.25 z m -3.6875,42.5 h 11.5 l -1.03125,11 h -11.5 z"
   id="path9113"
   style="fill:#ffffff" />
<path
   d="m 249.635,169.04999 h 31 l 5.25,5.75 -6.28125,5.5 H 248.635 l -5,-5.5 z m -7.28125,84.75 h 30.96875 l 5,5.5 -6.03125,5.75 H 241.3225 l -5.25,-5.75 z m 38.53125,-72.46875 6,-5.5 5.25,5.5 -2.8125,30.21875 -6,5.5 -5.25,-5.5 z m -44.5625,0 6.28125,-5.5 5,5.5 -2.4375,30.21875 -6.28125,5.5 -5.25,-5.5 z m 40.84375,41.46875 6.15625,-5.75 4.96875,5.75 -2.40625,29.96875 -6.28125,5.5 -5.25,-5.5 z m -44.53125,0 6.25,-5.75 5.25,5.75 -2.8125,29.96875 -6.28125,5.5 -4.96875,-5.5 z"
   id="path9115"
   style="fill:#ffffff" />
<path
   d="m 346.41625,169.04999 h 31 l 5.25,5.75 -6.28125,5.5 h -30.96875 l -5,-5.5 z m -7.28125,84.75 h 30.96875 l 5,5.5 -6.03125,5.75 h -30.96875 l -5.25,-5.75 z m 38.53125,-72.46875 6,-5.5 5.25,5.5 -2.8125,30.21875 -6,5.5 -5.25,-5.5 z m -44.5625,0 6.28125,-5.5 5,5.5 -2.4375,30.21875 -6.28125,5.5 -5.25,-5.5 z m 40.84375,41.46875 6.15625,-5.75 4.96875,5.75 -2.40625,29.96875 -6.28125,5.5 -5.25,-5.5 z m -44.53125,0 6.25,-5.75 5.25,5.75 -2.8125,29.96875 -6.28125,5.5 -4.96875,-5.5 z"
   id="path9117"
   style="fill:#ffffff" />

</svg>
